<?xml version="1.0" encoding="utf-8"?>
<!-- Generator: Adobe Illustrator 17.0.0, SVG Export Plug-In . SVG Version: 6.00 Build 0)  -->
<!DOCTYPE svg PUBLIC "-//W3C//DTD SVG 1.1//EN" "http://www.w3.org/Graphics/SVG/1.1/DTD/svg11.dtd">
<svg version="1.1" id="图层_1" xmlns="http://www.w3.org/2000/svg" xmlns:xlink="http://www.w3.org/1999/xlink" x="0px" y="0px"
	 width="1024px" height="1024px" viewBox="0 0 1024 1024" enable-background="new 0 0 1024 1024" xml:space="preserve">
<path d="M917.011,575.354l-366.547,181.01c-36.203,18.099-49.775,18.099-81.452,0l-366.547-181.01
	c-18.099-13.577-22.626-54.304-22.626-76.93C102.466,512,134.142,530.1,134.142,530.1l375.596,190.063L885.335,530.1
	c0,0,36.199-18.1,58.826-31.677C944.161,521.05,935.111,566.303,917.011,575.354 M917.011,380.767l-366.547,181.01
	c-36.203,18.103-49.775,18.103-81.452,0l-366.547-181.01c-27.154-18.1-27.154-67.876,0-90.503L469.012,77.578
	c31.677-18.104,54.298-18.104,81.452,0l366.547,217.209C944.161,308.364,944.161,367.195,917.011,380.767 M509.738,113.778
	L134.142,340.04L509.738,512l375.596-171.96L509.738,113.778 M509.738,910.223l375.596-190.059c0,0,36.199-18.104,58.826-31.681
	c0,22.627-4.527,67.881-22.627,76.93l-366.546,181.01c-36.2,18.103-49.777,18.103-81.452,0l-366.547-181.01
	c-18.1-13.572-22.622-54.303-22.622-76.93c22.622,13.577,58.826,31.681,58.826,31.681L509.738,910.223"/>
</svg>
