<?xml version="1.0" encoding="utf-8"?>
<!-- Generator: Adobe Illustrator 17.0.0, SVG Export Plug-In . SVG Version: 6.00 Build 0)  -->
<!DOCTYPE svg PUBLIC "-//W3C//DTD SVG 1.1//EN" "http://www.w3.org/Graphics/SVG/1.1/DTD/svg11.dtd">
<svg version="1.1" id="图层_1" xmlns="http://www.w3.org/2000/svg" xmlns:xlink="http://www.w3.org/1999/xlink" x="0px" y="0px"
	 width="1024px" height="1024px" viewBox="0 0 1024 1024" enable-background="new 0 0 1024 1024" xml:space="preserve">
<g>
	<path d="M893.701,657.951H654.68l126.019-488.288c3.124-12.043-4.108-24.288-16.136-27.394
		c-11.961-3.107-24.237,4.143-27.361,16.169L695.209,321.15H382.402l39.096-151.487c3.124-12.043-4.108-24.288-16.136-27.394
		c-11.961-3.107-24.237,4.143-27.361,16.169L336.008,321.15H130.4c-12.411,0-22.5,10.09-22.5,22.5c0,12.344,10.09,22.4,22.5,22.4
		h194.02l-75.333,291.901H85.5c-12.411,0-22.5,9.989-22.5,22.4s10.09,22.5,22.5,22.5h152l-39.1,151.505
		c-3.107,12.044,4.127,24.271,16.136,27.394c1.888,0.417,3.775,0.701,5.663,0.701c9.956,0,19.076-6.749,21.698-16.888
		L370.814,366.05h312.807l-75.333,291.901H399.801c-12.412,0-22.5,9.989-22.5,22.4s10.09,22.5,22.5,22.5h196.9l-39.1,151.505
		c-3.107,12.044,4.127,24.271,16.136,27.394c1.888,0.417,3.775,0.701,5.663,0.701c9.956,0,19.076-6.749,21.698-16.888
		l41.993-162.712h250.61c12.411,0,22.4-10.09,22.4-22.5S906.112,657.951,893.701,657.951z"/>
	<path d="M938.517,321.15H848.8c-12.411,0-22.5,10.09-22.5,22.5c0,12.344,10.09,22.4,22.5,22.4h89.717
		c12.412,0,22.484-10.055,22.483-22.4C961,331.24,950.927,321.15,938.517,321.15z"/>
</g>
</svg>
