<?xml version="1.0" encoding="utf-8"?>
<!-- Generator: Adobe Illustrator 17.0.0, SVG Export Plug-In . SVG Version: 6.00 Build 0)  -->
<!DOCTYPE svg PUBLIC "-//W3C//DTD SVG 1.1//EN" "http://www.w3.org/Graphics/SVG/1.1/DTD/svg11.dtd">
<svg version="1.1" id="图层_1" xmlns="http://www.w3.org/2000/svg" xmlns:xlink="http://www.w3.org/1999/xlink" x="0px" y="0px"
	 width="1024px" height="1024px" viewBox="0 0 1024 1024" enable-background="new 0 0 1024 1024" xml:space="preserve">
<path d="M668.799,224.008c-3.716-8.216-11.818-13.619-20.935-13.619c-9.008,0-17.225,5.288-20.941,13.503L465.284,586.908
	l-97.475-168.729c-4.068-7.106-11.631-11.493-19.814-11.481c-8.107,0-15.757,4.391-19.808,11.366L67.038,870.459
	c-4.051,7.09-4.051,15.757,0,22.847c4.051,7.09,11.706,11.481,19.808,11.481H936.92c7.772,0,14.972-3.94,19.138-10.47
	c4.276-6.53,4.841-14.632,1.687-21.722L668.799,224.008z M343.719,859.872H125.233l222.762-385.978l94.551,163.893L343.719,859.872z
	 M393.02,859.872l77.442-173.796l100.405,173.796H393.02z M622.762,859.872L493.09,635.199l154.774-347.367l254.953,572.041H622.762
	z M846.76,345.69c62.471,0,113.24-50.769,113.24-113.24c0-62.475-50.769-113.238-113.24-113.238
	c-62.47,0-113.123,50.763-113.123,113.238C733.638,294.921,784.401,345.69,846.76,345.69L846.76,345.69z M846.76,164.237
	c37.595,0,68.214,30.62,68.214,68.213c0,37.595-30.62,68.214-68.214,68.214c-37.593,0-68.213-30.62-68.213-68.214
	C778.547,194.857,809.167,164.237,846.76,164.237L846.76,164.237z M846.76,164.237"/>
</svg>
