<?xml version="1.0" encoding="utf-8"?>
<!-- Generator: Adobe Illustrator 16.0.0, SVG Export Plug-In . SVG Version: 6.00 Build 0)  -->
<!DOCTYPE svg PUBLIC "-//W3C//DTD SVG 1.1//EN" "http://www.w3.org/Graphics/SVG/1.1/DTD/svg11.dtd">
<svg version="1.1" id="图层_1" xmlns="http://www.w3.org/2000/svg" xmlns:xlink="http://www.w3.org/1999/xlink" x="0px" y="0px"
	 width="200px" height="200px" viewBox="0 0 200 200" enable-background="new 0 0 200 200" xml:space="preserve">
<g>
	<path d="M66.642,69.23c8.003,0,13.392-5.396,13.392-12.801c0-4.411-3.269-7.563-5.573-8.823c-0.883-0.482-1.74-0.778-3.132-0.906
		c-4.179-0.384-6.679,4.983-1.851,7.445c2.612,1.329,2.851,3.377,2.561,4.608c-0.548,2.329-2.214,3.93-5.527,3.585
		c-4.518-0.473-5.778-4.269-5.778-7.878c0-1.945,1.127-4.367,1.851-5.475c5.625-8.616,25.705-15.007,41.507-15.007
		c19.889,0,36.848,8.769,48.537,22.374c4.74,5.771,7.471,6.401,14.176,6.627c-12.834-21.9-36.265-36.563-63.679-36.563
		c-17.294,0-36.442,6.007-45.543,16.465c-2.747,3.151-4.663,7.563-4.451,12.919C53.446,63.761,58.637,69.23,66.642,69.23z"/>
	<path d="M147.945,86.947c-3.881,7-1.771,14.333,4.705,17.92c3.857,2.139,8.199,0.808,10.422-0.6
		c0.851-0.537,1.52-1.146,2.307-2.303c2.363-3.466-1.122-8.257-5.611-5.224c-2.432,1.635-4.338,0.853-5.271,0
		c-1.771-1.605-2.368-3.84-0.457-6.568c2.604-3.722,6.535-2.982,9.69-1.235c1.699,0.94,3.271,3.102,3.894,4.274
		c4.812,9.101,0.665,29.761-6.992,43.578c-9.644,17.399-25.532,27.979-43.098,31.608c-7.347,1.348-9.224,3.429-12.675,9.186
		c25.375-0.604,49.561-13.991,62.852-37.975c8.387-15.125,12.411-34.783,7.68-47.816c-1.431-3.928-4.354-7.744-9.14-10.153
		C159.128,78.06,151.827,79.95,147.945,86.947z"/>
	<path d="M91.759,149.613c-4.11-6.863-11.51-8.715-17.863-4.913c-3.785,2.271-4.808,6.694-4.704,9.315
		c0.036,1.01,0.227,1.896,0.831,3.153c1.818,3.781,7.707,3.165,7.335-2.237c-0.196-2.928,1.435-4.183,2.639-4.563
		c2.281-0.724,4.512-0.118,5.917,2.899c1.914,4.112-0.695,7.146-3.791,9.006c-1.669,0.998-4.325,1.272-5.65,1.226
		c-10.282-0.397-26.082-14.343-34.201-27.897c-10.221-17.063-11.41-36.12-5.745-53.136c2.519-7.031,1.655-9.699-1.597-15.569
		c-12.196,22.261-12.736,49.898,1.35,73.417c8.885,14.836,23.877,28.18,37.526,30.617c4.114,0.73,8.882,0.108,13.368-2.822
		C93.847,163.745,95.873,156.482,91.759,149.613z"/>
</g>
</svg>
