<?xml version="1.0" encoding="utf-8"?>
<!-- Generator: Adobe Illustrator 17.0.0, SVG Export Plug-In . SVG Version: 6.00 Build 0)  -->
<!DOCTYPE svg PUBLIC "-//W3C//DTD SVG 1.1//EN" "http://www.w3.org/Graphics/SVG/1.1/DTD/svg11.dtd">
<svg version="1.1" id="图层_1" xmlns="http://www.w3.org/2000/svg" xmlns:xlink="http://www.w3.org/1999/xlink" x="0px" y="0px"
	 width="1024px" height="1024px" viewBox="0 0 1024 1024" enable-background="new 0 0 1024 1024" xml:space="preserve">
<g>
	<path fill-rule="evenodd" clip-rule="evenodd" d="M452.037,570.437C450.813,572.726,453.618,571.521,452.037,570.437
		L452.037,570.437z"/>
	<path fill-rule="evenodd" clip-rule="evenodd" d="M453.663,468.858c-0.051-1.243,0.163-2.773-1.038-2.783
		C452.945,467.032,451.982,469.362,453.663,468.858z"/>
	<path fill-rule="evenodd" clip-rule="evenodd" d="M449.932,335.037c-0.102,0.925-0.757,2.375,0.568,2.799
		C450.2,337.021,450.969,335.059,449.932,335.037z"/>
	<path fill-rule="evenodd" clip-rule="evenodd" d="M455.326,381.85c0.313-0.011,0.626-0.022,0.938-0.033
		c-0.011-0.313-0.022-0.626-0.033-0.94c-0.312,0.011-0.625,0.022-0.938,0.033C455.304,381.224,455.315,381.537,455.326,381.85z"/>
	<path fill-rule="evenodd" clip-rule="evenodd" d="M223.126,221.466c1.546,0.21,2.551-0.179,2.714-1.492
		C224.294,219.762,223.29,220.151,223.126,221.466z"/>
	<path fill-rule="evenodd" clip-rule="evenodd" d="M215.664,219.975c1.281-0.17,1.497,0.839,2.711,0.744
		C219.463,218.638,215.446,218.656,215.664,219.975z"/>
	<path fill-rule="evenodd" clip-rule="evenodd" d="M227.196,216.985C224.913,214.719,225.139,219.747,227.196,216.985
		L227.196,216.985z"/>
	<path fill-rule="evenodd" clip-rule="evenodd" d="M273.335,160.24c0.067-1.917,2.648-1.067,2.714-2.983
		C274.053,156.621,271.64,159.276,273.335,160.24z"/>
	<path fill-rule="evenodd" clip-rule="evenodd" d="M256.372,157.256c-1.297,0.313-2.921,0.267-2.714,2.239
		C255.357,159.619,255.782,158.35,256.372,157.256z"/>
	<path fill-rule="evenodd" clip-rule="evenodd" d="M369.683,158.748c1.684,0.112,2.816-0.386,3.393-1.491
		C371.792,157.584,368.985,156.241,369.683,158.748z"/>
	<path fill-rule="evenodd" clip-rule="evenodd" d="M269.942,156.509c-0.994,2.193-3.721-1.787-3.39,2.239
		C268.407,159.225,271.935,157.8,269.942,156.509z"/>
	<path fill-rule="evenodd" clip-rule="evenodd" d="M244.838,157.256c0.643-1.832-5.036-2.631-4.749,0.747
		C243.04,157.736,243.209,157.888,244.838,157.256z"/>
	<path fill-rule="evenodd" clip-rule="evenodd" d="M198.022,152.775c-3.479,0.039-4.353,1.279-6.786,3.734
		C193.876,155.682,196.145,154.443,198.022,152.775z"/>
	<path fill-rule="evenodd" clip-rule="evenodd" d="M221.092,154.266c-2.295,0.866-2.897-0.525-4.073,0.748
		C217.889,156.041,221.075,156.314,221.092,154.266z"/>
	<path fill-rule="evenodd" clip-rule="evenodd" d="M209.557,155.761C213.047,153.956,207.221,153.832,209.557,155.761
		L209.557,155.761z"/>
	<path fill-rule="evenodd" clip-rule="evenodd" d="M274.691,153.505c-1.066,0.073-2.352-0.505-2.035,1.495c0.453,0,0.906,0,1.359,0
		C274.012,154,274.564,154.113,274.691,153.505z"/>
	<path fill-rule="evenodd" clip-rule="evenodd" d="M262.48,152.775c-3.587,0.929-6.935-2.288-9.5,0
		C257.11,154.941,258.965,154.704,262.48,152.775z"/>
	<path fill-rule="evenodd" clip-rule="evenodd" d="M202.092,155.014c0.011-1.233,1.883-0.419,2.038-1.495
		C203.602,151.964,200.049,154.072,202.092,155.014z"/>
	<path fill-rule="evenodd" clip-rule="evenodd" d="M240.089,152.027c0.038,0.456,0.102,0.884,0.676,0.748
		c0.26-3.087-7.161-2.139-8.139,0C234.728,155.017,240.534,154.221,240.089,152.027z"/>
	<path fill-rule="evenodd" clip-rule="evenodd" d="M176.988,152.027c3.211,0.176,7.01,0.441,8.821-1.491
		C181.791,150.9,177.747,149.703,176.988,152.027z"/>
	<path fill-rule="evenodd" clip-rule="evenodd" d="M224.482,151.283c0.867,0.039,0.941,0.954,2.038,0.744
		C227.574,150.189,224.214,149.831,224.482,151.283z"/>
	<path fill-rule="evenodd" clip-rule="evenodd" d="M223.803,150.509c-1.066,0.07-2.352-0.509-2.034,1.491c0.453,0,0.905,0,1.358,0
		C223.124,151,223.676,151.11,223.803,150.509z"/>
	<path fill-rule="evenodd" clip-rule="evenodd" d="M215.664,149.788c-3.065,0.468-5.218-1.938-6.107,1.495
		C210.725,152.76,214.717,151.028,215.664,149.788z"/>
	<path fill-rule="evenodd" clip-rule="evenodd" d="M208.878,149.041c-7.664,0.468-13.277-2.448-19,0.748
		C195.333,149.503,206.122,153.109,208.878,149.041z"/>
	<path fill-rule="evenodd" clip-rule="evenodd" d="M163.418,151.283c1.684,0.109,2.816-0.389,3.393-1.495
		C165.124,149.676,163.995,150.174,163.418,151.283z"/>
	<path fill-rule="evenodd" clip-rule="evenodd" d="M158.669,150.536C163.015,151.398,160.157,148.254,158.669,150.536
		L158.669,150.536z"/>
	<path fill-rule="evenodd" clip-rule="evenodd" d="M189.201,147.546c-2.134-0.371-2.654,1.628-4.072,0
		C183.953,151.24,189.356,149.424,189.201,147.546z"/>
	<path fill-rule="evenodd" clip-rule="evenodd" d="M174.273,146.054c-1.692-0.525-2.788-0.735-4.069,0.747
		C172.272,146.507,173.658,148.765,174.273,146.054z"/>
	<path fill-rule="evenodd" clip-rule="evenodd" d="M470.103,145.31C473.59,143.506,467.768,143.378,470.103,145.31L470.103,145.31z"
		/>
	<path fill-rule="evenodd" clip-rule="evenodd" d="M207.52,138.59c0.64-1.313-2.505,0.231-2.035,0.747
		C206.062,139.969,207.42,138.793,207.52,138.59z"/>
	<path fill-rule="evenodd" clip-rule="evenodd" d="M200.736,137.095c-1.168-0.039-1.74,0.574-2.035,1.495
		C199.767,138.517,201.054,138.687,200.736,137.095z"/>
	<path fill-rule="evenodd" clip-rule="evenodd" d="M197.343,137.095c-0.011,1.234-1.883,0.419-2.035,1.495
		C196.689,139.228,199.524,137.94,197.343,137.095z"/>
	<path fill-rule="evenodd" clip-rule="evenodd" d="M571.2,131.122c-0.155-0.577-0.019-1.474-0.679-1.495
		c-0.009,0.991-1.19,0.684-1.359,1.495C570.132,131.414,570.308,132.019,571.2,131.122z"/>
	<path fill-rule="evenodd" clip-rule="evenodd" d="M954.555,168.454c-0.005-5.468-2.407-8.303-4.749-11.198
		c-6.176-17.099-16.469-29.664-28.497-40.322c-0.215-1.008-0.966-1.425-0.679-2.983c-15.119-7.82-29.79-12.262-47.495-5.973
		c-0.574-1.112-2.184-1.082-3.393-1.495c-7.195,2.91-14,0.55-20.356,2.239c-0.947,0.252-1.626,1.407-2.714,1.491
		c-5.613,0.456-12.706-2.935-18.997,1.495c-7.501,0.304-14.428-2.734-23.07-0.747c-1.234,0.286-1.977,1.401-3.393,1.495
		c-6.69,0.446-14.837-2.4-23.07-1.495c-6.253,0.693-13.525,0.286-19.674,0.747c-0.861,0.067-1.949,1.374-2.717,1.495
		c-3.501,0.547-7.766-2.369-10.176-1.495c-1.867,0.435-2.833,1.859-4.749,2.242c-8.78-2.005-15.983-0.207-26.463,1.491
		c-4.735-3.05-9.202,0.058-14.249,0.744c-5.066,0.693-11.294-0.161-16.963,0.748c-5.025,0.808-9.128,0.031-12.891,0.748
		c-1.226,0.237-2.327,1.434-3.393,1.494c-5.02,0.283-10.16-1.148-14.928-0.747c-10.781,5.25-22.631,1.197-32.567,4.478
		c-2.84-3.138-4.967,0.547-8.142-0.744c-2.25,3.193-4.743,0.854-9.5,2.239c-0.24,2.224-0.392,4.545-2.035,5.226
		c-7.573-3.342-16.372,3.579-17.642,2.242c-2.222-2.346-7.603,3.129-10.855,1.491c-0.942,0.459-0.102,2.877-1.359,2.987
		c-7.079,1.093-8.609-0.726-14.249,2.242c-9.627,0.173-17.882,0.51-27.818,0.747c-16.684,0.395-33.738,5.615-50.888,4.478
		c-0.726,1.689-1.538,3.281-2.714,4.478c-7.347,0.933-12.995,5.049-20.356,4.481c-0.08-0.763,2.93-1.51,0.679-2.239
		c-4.602,5.389-15.922,3.384-21.711,7.467c-7.184-0.814-15.651-1.61-23.749-0.747c-0.941,0.097-1.648,1.428-2.714,1.491
		c-1.54,0.094-3.992-1.127-5.428-0.744c-0.733,0.195-1.102,0.327-1.346,0.431c0.25,0.26-0.752,0.322,0,0
		c-0.111-0.115-0.477-0.264-1.368-0.431c-1.822-0.346-6.977,1.191-8.821,0.744c-1.118-0.27-0.519-1.376-2.035-1.491
		c-1.886-0.149-3.572,0.759-5.428,0.747c-1.971-0.018-4.713-2.631-6.107,0c-0.147,1.349,4.094-0.82,4.069,2.236
		c-4.95,0.61-9.87,0.182-13.57,0c-1.695-0.079-5.314,2.23-5.428-0.744c3.164-3.418,6.648,2.239,8.142-2.239
		c-8.749-0.337-8.992-0.547-18.318-0.748c-1.452,0.893-0.845,4.05-4.072,2.987c-0.07-0.499,0.054-0.785,0.267-0.972
		c-4.591,2.309-8.907,3.41-13.157,3.211c2.289-2.457,7.592-1.598,8.818-5.225c-5.284-1.337-6.411,1.902-10.176,2.239
		c0.188-1.537,2.529-0.702,2.714-2.239c-10.295-1.555-20.433-0.869-30.532-2.242c-2.107,1.167-1.974,4.797-6.107,3.737
		c0.293-1.173,2.134-0.638,1.359-2.989c-8.017-1.361-11.419,2.859-20.356,2.989c0.207,1.738,1.449,3.214-0.679,3.731
		c-5.447-0.303-9.925,1.729-13.57-0.747c-5.174,1.659-6.267,2.516-13.569,1.495c0.262-1.066,0.814-1.258,0-2.242
		c-7.385,2.983-16.659,0.711-25.784,0.747c-2.518-3.385-9.315,1.397-12.893-2.983c-0.276,0.936-0.872,1.525-2.035,1.492
		c-1.571-1.37-2.223-2.136-5.428-2.987c-2.062,1.316,1.853,2.309,0,2.987c-2.771-1.334-1.408-2.021,0-3.734
		c-4.555,0.991-5.784,2.029-10.855,2.987c0.036-0.954,0.87-1.036,0.679-2.239c-1.872,1.021-5.066,2.956-5.43-1.495
		c-3.244,0.34-4.321,4.734-8.139,2.242c0.061-1.179,1.729-0.587,1.356-2.242c-2.057-1.89-3.912,1.221-6.107,1.495
		c-1.599-0.231-1.262-2.595-3.393-2.242c-2.761,2.436-8.542,1.55-12.891,2.242c-3.023,4.053-10.248,6.064-15.607,5.225
		c0.005,1.319-0.307,1.24-1.356,1.495c-5.417,1.312-8.691,0.513-14.249,2.239c1.347,2.755,2.159,2.713,1.358,6.717
		c-2.564,0.912-5.079,3.306-8.144,1.495c-1.491,0.851-2.253,2.497-4.07,2.989c-7.794,0.383-11.604,5.147-19,5.973
		c-3.777,6.037-11.827,5.026-16.963,9.704c-0.549,0.504-0.193,2.37-0.676,2.989c-0.271,0.34-1.72,0.425-2.035,0.745
		c-0.602,0.607-0.707,1.649-1.359,2.239C74,202.493,67.409,199.102,63,204.292c4.456-0.173,6.667,2.121,6.783,6.72
		c20.618,5.992,44.458,8.088,63.102,9.707c1.717-4.007,6.769,0.097,10.176-2.239c0.51-2.553-2.758-0.948-2.035-3.734
		c4.572,1.048,12.852,2.767,16.963,0.747c-4.925-3.26-10.855-2.191-14.928-5.229c-2.46-0.045-8.02,1.158-8.142-2.239
		c7.355-1.668,15.723-0.095,23.749,0.747c11.706,1.231,24.676,3.114,35.281,2.987c1.273,0.179-0.384,1.227,0.679,1.495
		c6.778-1.051,14.803,0.456,19.677,1.492c10.488,2.233,21.573,0.319,31.89,1.491c1.03,0.118,1.687,1.428,2.714,1.495
		c10.461,0.662,23.738,0.134,33.925,1.495c1.143,0.152,4.564-1.325,4.749,1.492c-6.195,0.012-19.384-1.607-27.818-1.492
		c-0.268,1.282,1.008,1.914,0,2.239c-4.644-0.018-13.805-1.546-17.642,0.744c16.742,2.327,36.355,3.457,54.96,4.481
		c2.689,0.149,5.552-0.45,8.142,0c2.813,0.489,5.389,2.488,8.142,2.987c8.904,1.622,18.161-0.523,26.463,2.989
		c3.931-2.659,12.854-0.957,17.639,1.492c1.919,0.659,4.63-0.829,6.786,0c0.529,0.203,0.78,0.403,0.908,0.578
		c0.091-0.151,0.231-0.34,0.447-0.578c-0.306,0.337,2.979,0.708,3.393,0.744c3.593,0.347,7.596,0.56,11.756,0.722
		c-2.521,8.731-0.329,19.999,1.297,26.58c0.923,1.284,2.33,2.047,2.495,4.143c-1.129,1.726-0.838,3.83-1.197,6.152
		c-0.405,2.64-1.423,5.361-1.613,7.576c-0.109,1.257,0.813,2.579-0.355,3.302c2.557,0.047-0.073-3.4,2.685-3.853
		c-0.14,1.686-1.162,2.547-0.776,4.728c2.145-0.576,1.898-3.381,4.094-3.903c-2.298,9.997-2.51,23.762-3.546,33.024
		c-0.891,7.956-1.141,16.236-2.048,22.16c-1.74,11.394-0.621,20.386-1.329,29.189c-1.519-0.238-0.585,1.711-1.863,0.536
		c-0.322,41.644-3.822,85.803-4.749,127.785c-3.751-0.01-7.785,0.193-11.406,0.762c0.388-1.736-0.742-2.496-2.483-2.868
		c-0.552,1.345,1.624,0.942,1.657,1.912c-6.303,2.174-14.222,1.02-19.274,0.961c-1.704,0.786-2.411,2.144-3.943,3.029
		c-2.507-1.125-10.462-1.344-13.66,0.336c2.949,0.303,7.536,0.212,6.536,4.235c-2.108,0.196-0.68-1.88-3.25-1.385
		c-2.141,1.816-10.766,1.085-15.208,2.815c8.022,0.456,16.261,1.841,22.592,3.349c-1.481,1.263-6.207,0.716-8.057-0.777
		c-6.121,0.525-10.049,0.558-15.289-0.601c-4.717,2.124-14.152-0.641-19.25,1.94c-6.2-1.892-16.333,0.988-22.544-1.398
		c-2.07,2.059-5.517,0.511-8.025,0.684c-0.134,0.009-0.118,0.92-0.776,0.996c-5.184,0.587-13.615-1.052-18.495-0.033
		c-2.075,0.433-4.472,1.706-5.552,3.068c10.46-1.036,12.115,0.536,20.893-0.514c4.185,2.061,9.128-0.784,12.099,1.655
		c2.668-0.875,7.754-0.359,10.421-1.235c3.747,2.721,16.721-0.483,15.409,5.482c-30.891,1.371-51.664,1.242-84.364,2.076
		c-0.231,1.139,0.173,1.872,0.86,2.42c-1.624,0.229-5.565,1.567-3.97,2.052c24.06-3.525,54.742,1.24,73.169,0.154
		c-0.103,0.579-1.404,1.141,0.036,1.465c0.315-0.622,1.013-1.025,2.385-1.035c1.404,2.239,4.656-0.384,3.25,1.384
		c3.685-0.216,3.869-0.614,7.232-0.178c-1.746,1.074,1.065,1.419,0.873,2.91c-8.972-0.362-18.991-0.435-26.527,0.164
		c0.511,0.665,3.094-0.003,3.241,0.898c-5.769,0.336-20.369,0.607-24.129-0.384c2.053-1.258,3.951,0.377,7.229-0.178
		c-2.387-1.808-10.052-1.735-13.668-0.153c1.441-0.096,1.893,0.439,1.641,1.427c-4.475-1.194-17.888,0.65-21.728-0.933
		c0.323,0.136,1.818-0.26,1.593-0.526c-10.348,1.178-24.699,0.158-32.918,1.786c1.192,0.063,0.764,1.162,0.851,1.933
		c0.257,0.721,3.368-0.612,4.04,0.878c-4.119,0.68-6.054,2.617-9.555,3.653c6.508-0.629,12.451-0.314,15.337,2.553
		c4.136,0.32,11.659-1.533,11.299,1.676c-0.577,1.272-5.953-0.212-5.591,1.602c12.767,0.088,24.147-0.249,36.181,0.084
		c7.006,0.196,14.527,0.353,20.953,1.928c-12.869,0.225-20.168,2.82-32.932,1.3c0.177-0.702,1.304-0.858,1.573-1.504
		c-10.798-0.002-14.521,1.23-23.316,0.085c1.399-0.481,4.008-0.268,4.799-1.096c-5.921-0.914-3.486,0.977-10.41,1.724
		c-5.896-1.127-21.259,0.198-24.894,1.099c9.799-0.852,19.112,2.26,26.527-0.164c19.855,1.732,47.169,0.624,69.171,1.229
		c4.244,0.116,8.688,0.618,12.103,1.655c-19.28,1.532-25.894,0.259-42.6,0.559c-1.115,1.094-4.719,1.242-6.404,1.136
		c-4.911-0.31-10.7-1.144-16.909-1.051c-6.199,0.094-12.135,0.444-17.616,0.885c17.147,1.033,35.873-0.031,54.661,1.625
		c0.457,0.994,3.805,0.021,1.645,1.424c5.363-1.677,14.018-1.448,19.33,1.477c4.234-1.321,9.128-1.555,11.235-0.765
		c3.318,0.149-0.803-1.293,2.378-1.522c9.198-0.014,17.198,1.084,19.379,3.43c4.606-1.849,11.605,0.759,14.476,0.132
		c-0.03,0.625-1.013,0.701-0.769,1.484c3.567,0.85,11.183-0.895,12.099,1.655c-1.615-0.196-3.76-0.967-3.991,1.077
		c3.591-0.18,0.49,1.03,3.246,1.384c1.76-0.695,2.15-1.703,4.034,0.39c0.488-2.474,4.007-0.92,6.404-1.136
		c1.411-0.471,0.974-2.004,3.979-1.561c3.016,0.932-3.065,2.551,0.865,2.42c1.631-0.718,2.229,0.095,3.176-1.544
		c3.818,1.765,11.955,0.969,18.233,1.321c-0.101,0.286-0.196,0.603-0.207,1.177c-0.432,19.891,0.946,34.401,0.914,53.079
		c-0.006,3.317,0.555,6.588,0.328,9.39c-0.133,1.617-0.88,2.949-0.776,4.726c0.073,1.254-0.413,0.221-0.404,1.894
		c0.094,18.672,0.484,40.172,0.334,63.44c-0.181,28.284-1.883,58.208,0.214,86.943c0.768,10.493,1.492,20.507,1.551,30.968
		c0.064,11.021,1.93,21.316,1.601,32.374c-0.123,4.128-1.558,8.574-1.452,12.271c0.072,2.558,1.236,4.87,1.2,7.478
		c-0.024,1.79-0.793,3.747-0.742,5.666c0.139,5.122,2.573,10.033,0.055,15.037c0.57,4.345,1.921,6.39,1.752,9.809
		c-0.092,1.862-0.778,5.877-1.614,7.578c-1.011,2.047-3.366,2.514-3.608,4.354c-0.421,3.161,2.824,4.849,2.624,7.899
		c2.068-0.26,4.52,3.263,6.735,4.465c2.607-1.458,5.29,0.318,7.997,0.19c1.928-0.09,3.586-1.321,5.586-1.604
		c2.215-0.315,4.805,0.417,7.057,0.224c7.551-0.648,14.855-3.521,22.417-4.072c5.271-2.504,10.811-4.755,16.202-7.146
		c5.558-5.564,11.969-10.336,19.728-13.848c0.987-3.925,5.528-4.534,5.305-9.585c1.653-3.324,4.771-7.243,4.77-11.448
		c0-1.865-1.493-4.22-1.637-6.522c-0.079-1.263,0.469-2.619,0.339-3.773c-0.245-2.145-1.515-4.497-1.654-6.992
		c-0.413-7.345-1.101-14.515-1.207-21.107c-1.529-2.657-0.376-9.677-0.961-14.067c-0.405-0.864-0.843-1.692-1.038-2.783
		c-0.123-1.013,0.801-1.816,0.842-2.85c0.483-11.916-1.97-19.716-1.098-31.452c-0.027-0.621-0.836-0.401-0.972-0.905
		c1.049-0.689,0.062-3.274,0.306-4.711c-0.924-0.631-0.928-2.251-1.522-3.237c1.629-4.61,0.161-9.635-0.038-14.569
		c-0.154-3.793-0.006-7.028-0.377-10.796c-0.536-5.432-2.04-11.277-1.981-16.382c0.03-2.69-0.505-3.995-0.683-6.087
		c-0.12-1.396,0.53-2.677,0.339-3.772c-0.174-0.983-0.953-1.86-1.038-2.783c-0.086-0.919,0.848-0.915,0.874-1.912
		c0,0-0.934-0.575-0.973-0.905c-0.098-0.847,0.886-3.81,0.776-4.726c-0.075-0.617-0.956-1.185-1.006-1.846
		c-0.537-7.282,0.183-15.132,0.656-21.642c-0.557-0.055-1.331,0.127-1.426-0.421c1.801-5.161,0.044-9.805,0.415-15.056
		c-0.035-0.775-1.312-0.216-1.443-0.888c2.314-6.048,0.403-9.269,0.465-13.646c0.031-2.243,0.813-4.548,0.694-7.075
		c-0.047-0.968-0.916-1.846-1.038-2.783c-0.25-1.9,0.694-4.058,0.727-6.136c0.036-2.485-0.933-4.917,0.206-7.527
		c-0.311-0.641-1.81-0.008-1.91-0.874c1.956-0.826,0.764-0.558,0.404-1.894c-0.695-2.581,0.352-6.723-1.688-7.931
		c1.527-0.09,0.929-2.163,1.295-3.335c-1.407-0.44-2.34-1.387-3.367-2.233c-0.011-3.825,0.529-4.668-0.748-7.964
		c-0.081,0.531-0.496,0.75-0.907,0.973c1.298-8.187-2.468-17.87,0.137-23.037c-2.76-5.115,0.011-9.651,0.011-13.16
		c-0.003-1.287-1.085-2.806-1.087-4.193c-0.005-3.63,0.925-6.926,0.09-10.142c0.637,0.067,1.302,0.124,1.953,0.185
		c0.012,1.278-0.377,2.985,0.543,3.288c0.101-0.8,0.208-2.16,0.107-3.227c24.42,2.217,58.261,0.715,86.272,4.059
		c-0.021-1.619,1.297-2.464,3.958-2.541c-0.704,0.878-2.939,0.881-3.166,2.032c7.441,0.042,16.151-0.404,21.732,0.931
		c0.771,0.184,0.925,0.878,1.63,0.936c0.069,0.006,0.023-1.058,0.779-0.995c1.853,0.154,1.539,0.419,3.226,0.41
		c4.795-0.035,11.637,0.542,19.296,0.012c4.756,2.389,10.551,1.094,14.5,1.11c7.782,0.03,17.518,1.464,23.361,1.865
		c13.029,0.897,43.519-0.811,62.672-1.543c7.532-0.286,12.568,0.14,19.294,0.013c14.996-0.278,27.406-1.563,39.422,0.984
		c1.5,0.855,2.761,1.864,4.879,2.322c0.491,0.015-12.652,0.05-12.79,0.469c10.802,0.009,18.548-1.262,18.548-0.303
		c0,0.012,0,0.966,0,0.966c0,0.141,15.416-0.701,16.816-0.557c0.538,0.057,7.909,0.789,9.246,0.917
		c5.204,0.508,9.571-0.936,12.23-0.705c0.696-5.217-1.209-10.324-1.092-15.559c0.028-1.237,1.808-2.217,1.572-3.438
		c-0.345-1.766-1.973-3.87-2.132-5.798c-0.348-4.293,2.372-8.746,1.497-13.216c-2.39-12.191-0.399-26.383-5.677-38.93
		c-8.592-1.53-3.714-8.839-5.919-14.016c-2.202-0.302-1.567,1.01-3.163,1.054c-4.07-4.245-13.303-3.686-15.507-9.874
		c-21.132-5.624-52.01,0.638-76.422-2.026c-0.627,1.246-4.213,0.786-5.584,1.604c-19.996-2.61-34.915,2.033-56.218,2.359
		c-1.268,0.075-0.6,1.261-2.389,1.036c-10.684-0.504-27.186,1.7-39.394-0.008c-1.059,0.032-0.711,0.874-1.581,1.016
		c-2.949-2.191-4.359,0.748-8.817,1.194c-1.053-1.197,0.371-1.538-0.849-1.933c-4.522,0.523-9.975,1.14-17.641,1.899
		c0.472-2.509-11.583-1.503-10.434,0.746c-2.505,0.873-3.328-1.735-4.031-0.39c-3.503,1.644-9.238,0.273-16.045,1.372
		c-2.919,0.472-5.347,2.056-7.976,2.64c-5.382,1.194-10.924,1.441-12.039,0.784c-8.732,2.123-28.044,1.146-44.145,3.04
		c-1.858-0.106-0.858,1.429-2.374,1.523c-2.897,0.176-5.509,0.438-8.066,0.705c-0.05-0.262-0.09-0.517-0.311-0.869
		c0.6,0.006,0.672,0.581,1.426,0.421c0.314-2.285-0.551-3.305-1.103-4.66c2.113,0,1.174-2.843,1.732-4.291
		c-0.891-0.418-1.521,1.461-1.879,0.066c1.145-1.375,0.291-4.141,0.273-5.649c-0.019-1.621,1.3,0.438-0.049-1.41
		c0.7-0.105,1.738,0.107,1.861-0.534c-1.862-0.471,0.076-3.46-1.102-4.662c0.319-0.761,2.3,0.027,1.826-1.473
		c-2.24-3.619-0.508-9.066-0.071-15.508c-0.554-0.055-1.33,0.127-1.424-0.421c0.615-3.476-0.728-10.78-0.492-14.084
		c0.967,0.137,1.303,3.42,1.959,2.282c-2.728-2.997-2.841-6.986-1.3-10.295c0.574,0.406,0.641,3.797,1.492,2.298
		c0.534-0.824-3.949-8.375,0.224-7.057c-0.118-1.738-0.725-1.157-1.913-0.875c1.928-2.081,0.294-4.906,2.12-6.653
		c-1.88-0.783-1.046-2.25-0.131-3.755c1.325-0.125-0.291,2.906,1.036,2.783c0.17-2.068,0.093-1.547,0.353-3.302
		c-0.553-0.055-1.329,0.127-1.422-0.42c1.915-0.258,0.053-0.695-0.049-1.408c-0.351-2.443-0.031-6.576-0.344-9.858
		c0.524-0.066,0.754,0.656,0.938-0.033c0.337-1.587-0.298-3.334-0.164-4.695c0.009-0.088,0.87-0.791,0.905-0.972
		c0.407-1.94-0.245-1.979-0.098-2.816c0.635-3.606-0.08-8.317,0.53-11.768c0.161-0.913,0.827-1.412,0.858-2.381
		c0.225-7.04-1.731-9.544-1.967-15.912c-0.172-0.973-1.246,0.742-1.44-0.889c2.182,0.069,0.836-0.932,1.309-2.866
		c-0.887-1.436-1.832,0.215-2.848-0.839c-2.072-5.847,1.556-11.74-1.01-15.475c0.461,1.491-0.671,1.492-1.344,1.927
		c-1.053-1.675-0.695-2.143-0.148-4.225c-1.846-3.778-0.159-7.96-0.426-12.206c-0.52-8.307-4.03-16.001-2.192-22.483
		c-0.96-0.595-2.075-1.023-2.431-2.266c-0.816-7.606-3.085-16.932-9.689-21.752c-1.776-5.345-4.288-6.961-5.152-12.98
		c-1.851,0.12-1.365,2.09-3.254,1.053c-3.079-1.547-1.874-4.857-2.626-7.897c-0.86-3.485-3.304-6.666-3.646-10.213
		c-0.113-1.164,0.872-2.786-0.131-3.755c-0.847,1.934-0.535,4.951-3.591,4.824c-0.27-3.062-0.053-3.861-0.683-6.086
		c-2.676-0.462-3.625,0.249-6.117-0.255c-0.681-1.868-1.357-3.743-1.169-6.54c-0.172-0.154-0.256-0.084-0.377-0.111
		c15.82-0.206,32.53-0.794,47.202-0.939c23.072-0.225,49.908,1.981,72.602-1.491c9.025-1.383,21.165,0.316,25.781,0.747
		c7.551,0.702,15.289-1.328,22.39-0.747c1.259,0.103,2.093,0.787,3.393,0.747c12.829-0.392,27.531-1.394,37.318,0
		c3.479,0.495,6.512-1.552,10.176-1.492c1.756,0.027,3.603,1.607,5.428,1.492c1.585-0.1,3.158-1.437,4.751-1.492
		c19.616-0.717,39.107,1.091,59.03,0.744c12.794-0.222,24.049-2.513,36.639,0.747c12.451-2.989,28.18-0.179,44.104-1.492
		c5.398-0.45,9.884-0.465,14.925-0.748c6.794-0.383,13.694-1.695,19.676-1.495c9.71,0.322,16.024-1.872,23.07,0
		c3.15-3.603,6.256-1.1,10.179-1.495c0.997-0.097,2.927-1.519,3.391-1.492c0.781,0.042,2.123,2.112,2.714,2.24
		c2.606,0.559,5.436-1.289,8.821-1.495c13.406-0.802,27.893-0.769,44.781-4.478c2.907,3.433,5.516,0.225,7.465,0
		c1.331-0.152,2.852,0.893,4.07,0.748c1.579-0.189,3.062-1.38,4.749-1.495c4.746-0.329,7.421-1.252,10.859-1.492
		c1.883-0.131,3.868,0.978,5.428,0.744c1.298-0.191,1.391-1.47,2.714-1.492c1.787-0.027,3.636,1.576,5.428,0.747
		c5.726,5.921,11.57-3.059,16.283-5.228C962.268,201.351,960.805,180.728,954.555,168.454z M157.99,206.534
		c-3.379-0.231-8.674,1.601-11.535-2.242c4.423-0.522,9.693,1.774,14.928,2.242c6.538,0.58,13.802-1.677,17.639,2.983
		C172.081,209.882,164.936,207.008,157.99,206.534z M292.333,158.748c1.397-2.555,3.539-0.398,5.428-1.491
		C298.175,160.2,294.036,158.131,292.333,158.748z M324.223,158.748c1.698-1.012,5.445-2.424,6.786-1.491
		C330.161,159.419,327.84,158.35,324.223,158.748z M304.311,516.238c-0.008-0.327-0.016-0.652-0.024-0.978
		c1.072-0.026,2.141-0.053,3.214-0.079c0.008,0.326,0.016,0.651,0.024,0.978C306.452,516.185,305.384,516.211,304.311,516.238z
		 M341.848,506.033c0.653-0.949,3.492-1.407,4.807-0.605C346.018,507.187,344.678,505.535,341.848,506.033z M451.734,615.568
		c-0.641-0.286-0.91-0.972-1.005-1.845C452.126,613.202,451.599,614.741,451.734,615.568z M545.841,562.55
		C547.698,560.935,549.133,564.188,545.841,562.55L545.841,562.55z M520.886,561.211c1.874-0.046,3.747-0.092,5.623-0.138
		C525.284,563.388,517.036,560.191,520.886,561.211z M403.74,237.007c-0.636-0.426-1.344-0.774-2.058-1.115
		c1.491-0.011,2.989-0.026,4.5-0.044C405.713,236.281,405.453,237.603,403.74,237.007z"/>
	<path fill-rule="evenodd" clip-rule="evenodd" d="M365.164,234.737C364.706,235.496,365.535,235.241,365.164,234.737
		L365.164,234.737z"/>
	<path fill-rule="evenodd" clip-rule="evenodd" d="M349.327,157.256c-0.775,0.456-1.522,0.795-2.28,1.18
		C347.783,158.015,349.197,158.342,349.327,157.256z"/>
	<path fill-rule="evenodd" clip-rule="evenodd" d="M211.592,158.748c1.019-1.118,2.857-1.333,3.393-2.987
		c-0.897-0.009-0.621-1.306-1.359-1.495c-0.149,0.584-0.568,0.869-1.356,0.748C213.61,157.593,209.96,158.301,211.592,158.748z"/>
	<path fill-rule="evenodd" clip-rule="evenodd" d="M228.554,157.256c-0.361-1.076,2.643-1.823,0.679-2.242
		C229.314,155.78,226.304,156.527,228.554,157.256z"/>
	<path fill-rule="evenodd" clip-rule="evenodd" d="M248.231,153.519c-0.315-2.096-6.032-2.935-6.107-0.744
		C243.891,152.03,246.204,152.614,248.231,153.519z"/>
	<path fill-rule="evenodd" clip-rule="evenodd" d="M180.38,149.041c-0.207-1.72,1.96-0.829,2.035-2.239
		c-2.637,1.559-7.35-2.743-8.821,1.492C176.951,147.725,177.937,147.492,180.38,149.041z"/>
	<path fill-rule="evenodd" clip-rule="evenodd" d="M110.933,564.464c8.362-0.559,11.361,1.141,16.862-0.904
		c-5.795-0.036-9.097-0.101-16.106-1.07C111.892,563.409,110.81,563.589,110.933,564.464z"/>
	<path fill-rule="evenodd" clip-rule="evenodd" d="M323.822,557.757c0.522,1.651,4.716,0.944,7.268,1.289
		C330.997,556.035,326.511,558.925,323.822,557.757z"/>
	<path fill-rule="evenodd" clip-rule="evenodd" d="M313.392,558.503c3.918,0.861,6.885-0.35,9.654,0.252
		C321.218,556.718,316.44,557.637,313.392,558.503z"/>
	<path fill-rule="evenodd" clip-rule="evenodd" d="M290.039,557.125c0.803,2.027,5.532,0.431,6.464,1.305
		C296.981,556.306,290.873,558.409,290.039,557.125z"/>
	<path fill-rule="evenodd" clip-rule="evenodd" d="M116.472,560.907c-0.536,0.013-1.068,0.026-1.605,0.04
		c0.008,0.324,0.016,0.652,0.024,0.977c0.537-0.013,1.07-0.026,1.605-0.039C116.488,561.559,116.48,561.232,116.472,560.907z"/>
	<path fill-rule="evenodd" clip-rule="evenodd" d="M291.576,554.156c2.733-0.034,5.61,0.016,6.404-1.133
		C296.55,552.342,293.169,553.459,291.576,554.156z"/>
	<path fill-rule="evenodd" clip-rule="evenodd" d="M206.263,550.394C211.423,550.833,207.988,548.861,206.263,550.394
		L206.263,550.394z"/>
	<path fill-rule="evenodd" clip-rule="evenodd" d="M197.422,550.612c1.161-0.294,4.167,0.468,4.007-0.585
		C200.268,550.322,197.263,549.557,197.422,550.612z"/>
	<path fill-rule="evenodd" clip-rule="evenodd" d="M158.688,544.729c2.696-0.377,7.477,0.444,8.825-0.706
		C164.64,544.126,160.423,543.024,158.688,544.729z"/>
	<path fill-rule="evenodd" clip-rule="evenodd" d="M160.917,537.349c-4.623,0.075-3.822-0.43-8.85-0.271
		C151.915,538.852,159.871,537.985,160.917,537.349z"/>
	<path fill-rule="evenodd" clip-rule="evenodd" d="M151.263,537.097c-4.233-0.269-11.943-0.917-15.28-0.112
		C140.204,537.26,147.205,538.367,151.263,537.097z"/>
	<path fill-rule="evenodd" clip-rule="evenodd" d="M131.141,536.127c-6.387,0.344-11.354-0.859-15.269,0.376
		C121.59,537.021,127.496,537.497,131.141,536.127z"/>
	<path fill-rule="evenodd" clip-rule="evenodd" d="M323.118,496.727c-0.073,0.006-0.105,0.004-0.176,0.01
		c0.071,0.029,0.14,0.065,0.211,0.097C323.132,496.776,323.118,496.727,323.118,496.727z"/>
	<path fill-rule="evenodd" clip-rule="evenodd" d="M323.941,497.196c-0.252-0.16-0.524-0.244-0.788-0.362
		C323.228,497.036,323.447,497.455,323.941,497.196z"/>
	<path fill-rule="evenodd" clip-rule="evenodd" d="M322.943,496.737C319.26,495.25,315.102,497.404,322.943,496.737L322.943,496.737
		z"/>
	<path fill-rule="evenodd" clip-rule="evenodd" d="M197.374,548.66c1.557,0.147,3.216,0.159,4.804,0.263
		C202.379,547.281,199.753,549.308,197.374,548.66z"/>
	<path fill-rule="evenodd" clip-rule="evenodd" d="M202.209,549.029c0.271-0.022,0.577-0.036,0.85-0.058
		c-0.292-0.018-0.59-0.03-0.881-0.048C202.171,548.979,202.223,548.963,202.209,549.029z"/>
	<path fill-rule="evenodd" clip-rule="evenodd" d="M197.374,548.66C196.389,547.201,193.124,549.295,197.374,548.66L197.374,548.66z
		"/>
	<path fill-rule="evenodd" clip-rule="evenodd" d="M297.308,558.41c3.058-0.144,5.014-0.174,5.615-0.626
		C302.241,557.385,296.609,556.602,297.308,558.41z"/>
	<path fill-rule="evenodd" clip-rule="evenodd" d="M152.99,541.938c-1.416-0.197-1.828,0.595-3.202,0.568
		c-1.369-0.029-2.963-0.865-4.04-0.879c-2.611-0.032-4.576,0.663-7.219,0.667c-6.444,0.01-13.079-0.779-21.721-0.441
		c-2.856,0.11-7.286-0.695-8.813,1.193c1.579,0.473,3.232,0.9,4.855,1.344c3.949-1.613,7.55,0.918,9.666,0.741
		c-8.837,1.918-21.88-1.227-27.307,1.161c4.436-0.098,0.764,1.927,3.29,2.848c-0.135,1.711-3.101,4.289-1.477,5.411
		c3.739-1.064,7.869,0.455,11.273,0.698c2.809,0.2,6.476-0.711,7.254,0.799c-2.001,0.643-4.971,0.352-8.046-0.29
		c-0.122,1.533-2.601,1.713-2.325,3.475c1.511,0.497,9.842-0.207,7.304,2.751c1.31-1.144,6.592-3.593,8.813-1.195
		c-1.514,0.253-4.858-0.545-3.994,1.076c4.065,1.543,9.14-3.223,12.856-0.316c4.319-2.239,11.64,0.943,17.642-1.901
		c-1.749-0.86-5.894-0.182-8.849-0.269c-0.02-0.815-0.04-1.628-0.06-2.44c-3.472,0.077-5.322-0.882-8.073-1.267
		c2.473-1.56,6.969,0.697,8.013-1.174c-1.44-0.235-3.344-0.169-4.042-0.876c1.857,0.103,0.858-1.434,2.373-1.526
		c-0.958,2.679,7.657,1.322,8.047,0.292c-3.17-0.151-4.146,1.125-5.636-0.35c5.981-0.406,14.404,0.22,16.043-1.371
		c-3.193-0.761-6.185-1.651-9.699-2.203c-0.191,1.809-6.178,2.03-5.638-0.35c-4.239,0.171-5.17,0.791-7.256-0.796
		c1.201-0.114,2.97,0.101,3.202-0.568c-4.175-0.794-11.595,0.499-12.916-2.125c1.106-0.005,1.76-0.274,2.401-0.548
		c2.675,1.059,8.135,0.198,9.65,0.252c1.142,0.042,1.377,0.913,2.437,0.918c3.092,0.011,7.631-0.181,11.247-0.276
		c3.619-0.097,9.036-0.079,9.608-1.704C155.934,544.207,155.362,542.267,152.99,541.938z M134.655,548.249
		c0.174,1.061-0.619,1.57-2.373,1.523C132.108,548.712,132.9,548.206,134.655,548.249z M133.166,553.172
		c0.008,0.326,0.016,0.649,0.024,0.975c-0.801,0.02-1.605,0.039-2.41,0.059c-0.008-0.326-0.016-0.649-0.024-0.976
		C131.561,553.211,132.365,553.191,133.166,553.172z M129.952,553.251c-4.322,1.69-6.733,0.129-12.051,0.297
		C121.756,552.03,128.416,552.261,129.952,553.251z"/>
	<path fill-rule="evenodd" clip-rule="evenodd" d="M173.317,551.205c1.817-0.714,3.052,1.185,3.214-0.079
		C176.037,550.995,173.409,549.989,173.317,551.205z"/>
	<path fill-rule="evenodd" clip-rule="evenodd" d="M169.287,550.818c0.61-0.216,0.686-0.18-0.012-0.489
		C168.739,550.091,165.304,552.229,169.287,550.818z"/>
	<path fill-rule="evenodd" clip-rule="evenodd" d="M162.534,537.797c3.784,0.478,10.256,1.074,10.458,0.23
		C169.639,538.178,165.658,536.15,162.534,537.797z"/>
	<path fill-rule="evenodd" clip-rule="evenodd" d="M185.336,549.444c-2.864-0.038-4.809,0.45-5.589,1.603
		C182.26,551.719,185.359,551.482,185.336,549.444z"/>
</g>
</svg>
